<mxfile host="app.diagrams.net" modified="2024-02-08T08:30:10.380Z" agent="Mozilla/5.0 (Windows NT 10.0; Win64; x64) AppleWebKit/537.36 (KHTML, like Gecko) Chrome/121.0.0.0 Safari/537.36" etag="MsRkCplPLE6pR8au14Nf" version="23.1.0" type="device">
  <diagram name="Page-1" id="efa7a0a1-bf9b-a30e-e6df-94a7791c09e9">
    <mxGraphModel dx="1050" dy="522" grid="1" gridSize="10" guides="1" tooltips="1" connect="1" arrows="1" fold="1" page="1" pageScale="1" pageWidth="826" pageHeight="1169" background="none" math="0" shadow="0">
      <root>
        <mxCell id="0" />
        <mxCell id="1" parent="0" />
        <mxCell id="DyDNxNTSyAQstBs_xP2o-118" style="edgeStyle=orthogonalEdgeStyle;rounded=0;orthogonalLoop=1;jettySize=auto;html=1;entryX=0.5;entryY=0;entryDx=0;entryDy=0;" parent="1" source="DyDNxNTSyAQstBs_xP2o-114" target="DyDNxNTSyAQstBs_xP2o-119" edge="1">
          <mxGeometry relative="1" as="geometry">
            <mxPoint x="258" y="310" as="targetPoint" />
          </mxGeometry>
        </mxCell>
        <mxCell id="DyDNxNTSyAQstBs_xP2o-120" style="edgeStyle=orthogonalEdgeStyle;rounded=0;orthogonalLoop=1;jettySize=auto;html=1;entryX=0.5;entryY=0;entryDx=0;entryDy=0;" parent="1" source="DyDNxNTSyAQstBs_xP2o-114" target="DyDNxNTSyAQstBs_xP2o-121" edge="1">
          <mxGeometry relative="1" as="geometry">
            <mxPoint x="408" y="310" as="targetPoint" />
          </mxGeometry>
        </mxCell>
        <mxCell id="DyDNxNTSyAQstBs_xP2o-122" style="edgeStyle=orthogonalEdgeStyle;rounded=0;orthogonalLoop=1;jettySize=auto;html=1;entryX=0.5;entryY=0;entryDx=0;entryDy=0;" parent="1" source="DyDNxNTSyAQstBs_xP2o-114" target="DyDNxNTSyAQstBs_xP2o-123" edge="1">
          <mxGeometry relative="1" as="geometry">
            <mxPoint x="528" y="310" as="targetPoint" />
          </mxGeometry>
        </mxCell>
        <mxCell id="DyDNxNTSyAQstBs_xP2o-124" style="edgeStyle=orthogonalEdgeStyle;rounded=0;orthogonalLoop=1;jettySize=auto;html=1;entryX=0.5;entryY=0;entryDx=0;entryDy=0;" parent="1" source="DyDNxNTSyAQstBs_xP2o-114" target="DyDNxNTSyAQstBs_xP2o-125" edge="1">
          <mxGeometry relative="1" as="geometry">
            <mxPoint x="688" y="310" as="targetPoint" />
          </mxGeometry>
        </mxCell>
        <mxCell id="DyDNxNTSyAQstBs_xP2o-159" style="edgeStyle=orthogonalEdgeStyle;rounded=0;orthogonalLoop=1;jettySize=auto;html=1;entryX=0.5;entryY=0;entryDx=0;entryDy=0;" parent="1" source="DyDNxNTSyAQstBs_xP2o-114" target="DyDNxNTSyAQstBs_xP2o-160" edge="1">
          <mxGeometry relative="1" as="geometry">
            <mxPoint x="128" y="440" as="targetPoint" />
          </mxGeometry>
        </mxCell>
        <mxCell id="DyDNxNTSyAQstBs_xP2o-114" value="Home" style="rounded=1;whiteSpace=wrap;html=1;" parent="1" vertex="1">
          <mxGeometry x="68" y="200" width="120" height="80" as="geometry" />
        </mxCell>
        <mxCell id="DyDNxNTSyAQstBs_xP2o-127" style="edgeStyle=orthogonalEdgeStyle;rounded=0;orthogonalLoop=1;jettySize=auto;html=1;entryX=0.5;entryY=0;entryDx=0;entryDy=0;" parent="1" source="DyDNxNTSyAQstBs_xP2o-119" target="DyDNxNTSyAQstBs_xP2o-136" edge="1">
          <mxGeometry relative="1" as="geometry">
            <mxPoint x="260" y="440" as="targetPoint" />
          </mxGeometry>
        </mxCell>
        <mxCell id="DyDNxNTSyAQstBs_xP2o-119" value="Account Page" style="rounded=1;whiteSpace=wrap;html=1;" parent="1" vertex="1">
          <mxGeometry x="200" y="310" width="120" height="60" as="geometry" />
        </mxCell>
        <mxCell id="DyDNxNTSyAQstBs_xP2o-128" style="edgeStyle=orthogonalEdgeStyle;rounded=0;orthogonalLoop=1;jettySize=auto;html=1;entryX=0.5;entryY=0;entryDx=0;entryDy=0;" parent="1" source="DyDNxNTSyAQstBs_xP2o-121" target="DyDNxNTSyAQstBs_xP2o-140" edge="1">
          <mxGeometry relative="1" as="geometry">
            <mxPoint x="413" y="440" as="targetPoint" />
          </mxGeometry>
        </mxCell>
        <mxCell id="DyDNxNTSyAQstBs_xP2o-121" value="Practice Page" style="rounded=1;whiteSpace=wrap;html=1;" parent="1" vertex="1">
          <mxGeometry x="353" y="310" width="120" height="60" as="geometry" />
        </mxCell>
        <mxCell id="DyDNxNTSyAQstBs_xP2o-129" style="edgeStyle=orthogonalEdgeStyle;rounded=0;orthogonalLoop=1;jettySize=auto;html=1;exitX=0.5;exitY=1;exitDx=0;exitDy=0;entryX=0.5;entryY=0;entryDx=0;entryDy=0;" parent="1" source="DyDNxNTSyAQstBs_xP2o-123" target="DyDNxNTSyAQstBs_xP2o-144" edge="1">
          <mxGeometry relative="1" as="geometry">
            <mxPoint x="560" y="440" as="targetPoint" />
          </mxGeometry>
        </mxCell>
        <mxCell id="DyDNxNTSyAQstBs_xP2o-123" value="Trial Page" style="rounded=1;whiteSpace=wrap;html=1;" parent="1" vertex="1">
          <mxGeometry x="500" y="310" width="120" height="60" as="geometry" />
        </mxCell>
        <mxCell id="DyDNxNTSyAQstBs_xP2o-130" style="edgeStyle=orthogonalEdgeStyle;rounded=0;orthogonalLoop=1;jettySize=auto;html=1;entryX=0.5;entryY=0;entryDx=0;entryDy=0;" parent="1" source="DyDNxNTSyAQstBs_xP2o-125" target="DyDNxNTSyAQstBs_xP2o-148" edge="1">
          <mxGeometry relative="1" as="geometry">
            <mxPoint x="710" y="440" as="targetPoint" />
          </mxGeometry>
        </mxCell>
        <mxCell id="DyDNxNTSyAQstBs_xP2o-125" value="Leaderboard Page" style="rounded=1;whiteSpace=wrap;html=1;" parent="1" vertex="1">
          <mxGeometry x="650" y="310" width="120" height="60" as="geometry" />
        </mxCell>
        <mxCell id="DyDNxNTSyAQstBs_xP2o-131" value="All pages will be linked&lt;br&gt;via a side panel that can&lt;br&gt;be hidden and brought&lt;br&gt;back out when needed." style="text;html=1;align=center;verticalAlign=middle;resizable=0;points=[];autosize=1;strokeColor=none;fillColor=none;" parent="1" vertex="1">
          <mxGeometry x="360" y="150" width="150" height="70" as="geometry" />
        </mxCell>
        <mxCell id="DyDNxNTSyAQstBs_xP2o-136" value="View" style="swimlane;fontStyle=0;childLayout=stackLayout;horizontal=1;startSize=30;horizontalStack=0;resizeParent=1;resizeParentMax=0;resizeLast=0;collapsible=1;marginBottom=0;whiteSpace=wrap;html=1;" parent="1" vertex="1">
          <mxGeometry x="190" y="440" width="140" height="120" as="geometry" />
        </mxCell>
        <mxCell id="DyDNxNTSyAQstBs_xP2o-137" value="Personal bests" style="text;strokeColor=none;fillColor=none;align=left;verticalAlign=middle;spacingLeft=4;spacingRight=4;overflow=hidden;points=[[0,0.5],[1,0.5]];portConstraint=eastwest;rotatable=0;whiteSpace=wrap;html=1;" parent="DyDNxNTSyAQstBs_xP2o-136" vertex="1">
          <mxGeometry y="30" width="140" height="30" as="geometry" />
        </mxCell>
        <mxCell id="DyDNxNTSyAQstBs_xP2o-138" value="Past run records" style="text;strokeColor=none;fillColor=none;align=left;verticalAlign=middle;spacingLeft=4;spacingRight=4;overflow=hidden;points=[[0,0.5],[1,0.5]];portConstraint=eastwest;rotatable=0;whiteSpace=wrap;html=1;" parent="DyDNxNTSyAQstBs_xP2o-136" vertex="1">
          <mxGeometry y="60" width="140" height="30" as="geometry" />
        </mxCell>
        <mxCell id="DyDNxNTSyAQstBs_xP2o-139" value="Personal information" style="text;strokeColor=none;fillColor=none;align=left;verticalAlign=middle;spacingLeft=4;spacingRight=4;overflow=hidden;points=[[0,0.5],[1,0.5]];portConstraint=eastwest;rotatable=0;whiteSpace=wrap;html=1;" parent="DyDNxNTSyAQstBs_xP2o-136" vertex="1">
          <mxGeometry y="90" width="140" height="30" as="geometry" />
        </mxCell>
        <mxCell id="DyDNxNTSyAQstBs_xP2o-140" value="View" style="swimlane;fontStyle=0;childLayout=stackLayout;horizontal=1;startSize=30;horizontalStack=0;resizeParent=1;resizeParentMax=0;resizeLast=0;collapsible=1;marginBottom=0;whiteSpace=wrap;html=1;" parent="1" vertex="1">
          <mxGeometry x="343" y="440" width="140" height="220" as="geometry">
            <mxRectangle x="343" y="440" width="70" height="30" as="alternateBounds" />
          </mxGeometry>
        </mxCell>
        <mxCell id="DyDNxNTSyAQstBs_xP2o-141" value="Infinite word generator" style="text;strokeColor=none;fillColor=none;align=left;verticalAlign=middle;spacingLeft=4;spacingRight=4;overflow=hidden;points=[[0,0.5],[1,0.5]];portConstraint=eastwest;rotatable=0;whiteSpace=wrap;html=1;" parent="DyDNxNTSyAQstBs_xP2o-140" vertex="1">
          <mxGeometry y="30" width="140" height="30" as="geometry" />
        </mxCell>
        <mxCell id="DyDNxNTSyAQstBs_xP2o-142" value="WPM tracker calculated every time a paragraph is completed" style="text;strokeColor=none;fillColor=none;align=left;verticalAlign=middle;spacingLeft=4;spacingRight=4;overflow=hidden;points=[[0,0.5],[1,0.5]];portConstraint=eastwest;rotatable=0;whiteSpace=wrap;html=1;" parent="DyDNxNTSyAQstBs_xP2o-140" vertex="1">
          <mxGeometry y="60" width="140" height="50" as="geometry" />
        </mxCell>
        <mxCell id="DyDNxNTSyAQstBs_xP2o-158" value="Word counter" style="text;strokeColor=none;fillColor=none;align=left;verticalAlign=middle;spacingLeft=4;spacingRight=4;overflow=hidden;points=[[0,0.5],[1,0.5]];portConstraint=eastwest;rotatable=0;whiteSpace=wrap;html=1;" parent="DyDNxNTSyAQstBs_xP2o-140" vertex="1">
          <mxGeometry y="110" width="140" height="50" as="geometry" />
        </mxCell>
        <mxCell id="DyDNxNTSyAQstBs_xP2o-143" value="Able to show which letters had been missed the most?" style="text;strokeColor=none;fillColor=none;align=left;verticalAlign=middle;spacingLeft=4;spacingRight=4;overflow=hidden;points=[[0,0.5],[1,0.5]];portConstraint=eastwest;rotatable=0;whiteSpace=wrap;html=1;" parent="DyDNxNTSyAQstBs_xP2o-140" vertex="1">
          <mxGeometry y="160" width="140" height="60" as="geometry" />
        </mxCell>
        <mxCell id="DyDNxNTSyAQstBs_xP2o-144" value="View" style="swimlane;fontStyle=0;childLayout=stackLayout;horizontal=1;startSize=30;horizontalStack=0;resizeParent=1;resizeParentMax=0;resizeLast=0;collapsible=1;marginBottom=0;whiteSpace=wrap;html=1;" parent="1" vertex="1">
          <mxGeometry x="490" y="440" width="140" height="120" as="geometry" />
        </mxCell>
        <mxCell id="DyDNxNTSyAQstBs_xP2o-145" value="HP bar, word counter" style="text;strokeColor=none;fillColor=none;align=left;verticalAlign=middle;spacingLeft=4;spacingRight=4;overflow=hidden;points=[[0,0.5],[1,0.5]];portConstraint=eastwest;rotatable=0;whiteSpace=wrap;html=1;" parent="DyDNxNTSyAQstBs_xP2o-144" vertex="1">
          <mxGeometry y="30" width="140" height="30" as="geometry" />
        </mxCell>
        <mxCell id="DyDNxNTSyAQstBs_xP2o-146" value="Item 2" style="text;strokeColor=none;fillColor=none;align=left;verticalAlign=middle;spacingLeft=4;spacingRight=4;overflow=hidden;points=[[0,0.5],[1,0.5]];portConstraint=eastwest;rotatable=0;whiteSpace=wrap;html=1;" parent="DyDNxNTSyAQstBs_xP2o-144" vertex="1">
          <mxGeometry y="60" width="140" height="30" as="geometry" />
        </mxCell>
        <mxCell id="DyDNxNTSyAQstBs_xP2o-147" value="Item 3" style="text;strokeColor=none;fillColor=none;align=left;verticalAlign=middle;spacingLeft=4;spacingRight=4;overflow=hidden;points=[[0,0.5],[1,0.5]];portConstraint=eastwest;rotatable=0;whiteSpace=wrap;html=1;" parent="DyDNxNTSyAQstBs_xP2o-144" vertex="1">
          <mxGeometry y="90" width="140" height="30" as="geometry" />
        </mxCell>
        <mxCell id="DyDNxNTSyAQstBs_xP2o-148" value="View" style="swimlane;fontStyle=0;childLayout=stackLayout;horizontal=1;startSize=30;horizontalStack=0;resizeParent=1;resizeParentMax=0;resizeLast=0;collapsible=1;marginBottom=0;whiteSpace=wrap;html=1;" parent="1" vertex="1">
          <mxGeometry x="640" y="440" width="140" height="120" as="geometry" />
        </mxCell>
        <mxCell id="DyDNxNTSyAQstBs_xP2o-149" value="Full leaderboard view" style="text;strokeColor=none;fillColor=none;align=left;verticalAlign=middle;spacingLeft=4;spacingRight=4;overflow=hidden;points=[[0,0.5],[1,0.5]];portConstraint=eastwest;rotatable=0;whiteSpace=wrap;html=1;" parent="DyDNxNTSyAQstBs_xP2o-148" vertex="1">
          <mxGeometry y="30" width="140" height="30" as="geometry" />
        </mxCell>
        <mxCell id="DyDNxNTSyAQstBs_xP2o-150" value="Up to 100 players" style="text;strokeColor=none;fillColor=none;align=left;verticalAlign=middle;spacingLeft=4;spacingRight=4;overflow=hidden;points=[[0,0.5],[1,0.5]];portConstraint=eastwest;rotatable=0;whiteSpace=wrap;html=1;" parent="DyDNxNTSyAQstBs_xP2o-148" vertex="1">
          <mxGeometry y="60" width="140" height="30" as="geometry" />
        </mxCell>
        <mxCell id="DyDNxNTSyAQstBs_xP2o-151" value="Item 3" style="text;strokeColor=none;fillColor=none;align=left;verticalAlign=middle;spacingLeft=4;spacingRight=4;overflow=hidden;points=[[0,0.5],[1,0.5]];portConstraint=eastwest;rotatable=0;whiteSpace=wrap;html=1;" parent="DyDNxNTSyAQstBs_xP2o-148" vertex="1">
          <mxGeometry y="90" width="140" height="30" as="geometry" />
        </mxCell>
        <mxCell id="DyDNxNTSyAQstBs_xP2o-160" value="View" style="swimlane;fontStyle=0;childLayout=stackLayout;horizontal=1;startSize=30;horizontalStack=0;resizeParent=1;resizeParentMax=0;resizeLast=0;collapsible=1;marginBottom=0;whiteSpace=wrap;html=1;" parent="1" vertex="1">
          <mxGeometry x="40" y="440" width="140" height="120" as="geometry" />
        </mxCell>
        <mxCell id="DyDNxNTSyAQstBs_xP2o-161" value="Welcome page?" style="text;strokeColor=none;fillColor=none;align=left;verticalAlign=middle;spacingLeft=4;spacingRight=4;overflow=hidden;points=[[0,0.5],[1,0.5]];portConstraint=eastwest;rotatable=0;whiteSpace=wrap;html=1;" parent="DyDNxNTSyAQstBs_xP2o-160" vertex="1">
          <mxGeometry y="30" width="140" height="30" as="geometry" />
        </mxCell>
        <mxCell id="DyDNxNTSyAQstBs_xP2o-162" value="Top 10 players" style="text;strokeColor=none;fillColor=none;align=left;verticalAlign=middle;spacingLeft=4;spacingRight=4;overflow=hidden;points=[[0,0.5],[1,0.5]];portConstraint=eastwest;rotatable=0;whiteSpace=wrap;html=1;" parent="DyDNxNTSyAQstBs_xP2o-160" vertex="1">
          <mxGeometry y="60" width="140" height="30" as="geometry" />
        </mxCell>
        <mxCell id="DyDNxNTSyAQstBs_xP2o-163" value="Item 3" style="text;strokeColor=none;fillColor=none;align=left;verticalAlign=middle;spacingLeft=4;spacingRight=4;overflow=hidden;points=[[0,0.5],[1,0.5]];portConstraint=eastwest;rotatable=0;whiteSpace=wrap;html=1;" parent="DyDNxNTSyAQstBs_xP2o-160" vertex="1">
          <mxGeometry y="90" width="140" height="30" as="geometry" />
        </mxCell>
      </root>
    </mxGraphModel>
  </diagram>
</mxfile>
